<svg xmlns="http://www.w3.org/2000/svg" viewBox="0 0 45 45">
  <title>Black King</title>
  <g fill="none" fill-rule="evenodd" stroke="#0a0a0a" stroke-width="1.5" stroke-linecap="round" stroke-linejoin="round">
    <path fill="#111827" d="M22.5 9v5"/>
    <path fill="#111827" d="M20 11.5h5"/>
    <path fill="#111827" d="M14 19c2-4 6-6 8.5-6s6.5 2 8.5 6c1.2 2.4 1 5.3-.5 7.4-1.2 1.8-3.3 2.9-5.5 3.4 2 1 3 2.6 3 4.8V40H17v-4.9c0-2.2 1-3.8 3-4.8-2.2-.5-4.3-1.6-5.5-3.4-1.5-2.1-1.7-5-.5-7.4z"/>
    <path fill="#111827" d="M14 36h17v4H14z"/>
  </g>
</svg>
